<?xml version="1.0" encoding="utf-8"?>
<!-- Generator: Adobe Illustrator 19.1.0, SVG Export Plug-In . SVG Version: 6.00 Build 0)  -->
<svg version="1.1" xmlns="http://www.w3.org/2000/svg" xmlns:xlink="http://www.w3.org/1999/xlink" x="0px" y="0px"
	 viewBox="0 0 841.9 595.3" style="enable-background:new 0 0 841.9 595.3;" xml:space="preserve">
<g id="Layer_1">
	<linearGradient id="SVGID_1_" gradientUnits="userSpaceOnUse" x1="420.9449" y1="588.1378" x2="420.9449" y2="1.0152">
		<stop  offset="0" style="stop-color:#D9D9D9"/>
		<stop  offset="0.3586" style="stop-color:#E3E3E3"/>
		<stop  offset="0.965" style="stop-color:#FDFDFD"/>
		<stop  offset="1" style="stop-color:#FFFFFF"/>
	</linearGradient>
	<rect style="fill:url(#SVGID_1_);" width="841.9" height="595.2"/>
	<rect x="14.3" y="15.1" style="fill:none;stroke:#002B49;stroke-miterlimit:10;" width="813.3" height="565"/>
	<rect x="-0.6" y="54.1" style="fill:none;" width="842.5" height="32"/>
	<text transform="matrix(1 0 0 1 229.045 79.3028)" style="font-family:'Helvetica'; font-size:35px;">Certificate of Completion</text>
	<polygon style="fill:#00ADEF;" points="673.4,123.1 163.4,123.1 163.4,420.1 546.4,420.1 615.4,485.1 615.4,420.1 673.4,420.1 	"/>
	<rect x="-0.6" y="156.1" style="fill:none;" width="842.5" height="274"/>
	<text transform="matrix(1 0 0 1 313.9571 173.3937)"><tspan x="0" y="0" style="fill:#FFFFFF; font-family:'Helvetica'; font-size:24px;">This is to certify that</tspan><tspan x="-101.4" y="85.6" style="fill:#FFFFFF; font-family:'Helvetica'; font-size:24px;">has successfully completed a course in</tspan><tspan x="93.4" y="171.2" style="fill:#FFFFFF; font-family:'Helvetica'; font-size:24px;">on</tspan></text>
	<g>
		<path style="fill:#001F49;" d="M40.4,549.8v-7c-8.6,1-11.5,3-11.5,6.3c0,3,2,4.2,4.4,4.2S37.8,552,40.4,549.8L40.4,549.8z
			 M27,549.1c0-4.6,4.2-6.8,13.4-7.8c0-3.2-0.8-6.6-4.9-6.6c-2.8,0-5.2,1.4-6.6,2.4l-0.9-1.4c1.5-1,4.4-2.7,7.7-2.7
			c4.9,0,6.6,3.5,6.6,8v13.3h-1.6l-0.2-2.7h-0.1c-2.1,1.7-4.6,3.2-7.4,3.2C29.7,554.8,27,553,27,549.1L27,549.1z"/>
		<path style="fill:#001F49;" d="M46.2,544c0-7,4.4-10.9,9.5-10.9c2.9,0,4.7,1.3,6.1,2.6l-1.1,1.3c-1.3-1.3-2.9-2.2-4.9-2.2
			c-4.2,0-7.5,3.8-7.5,9.3c0,5.4,3,9.2,7.5,9.2c2.2,0,4.1-1.1,5.5-2.4l1,1.3c-1.8,1.6-4,2.7-6.6,2.7C50.3,554.8,46.2,550.8,46.2,544
			L46.2,544z"/>
		<path style="fill:#001F49;" d="M77.6,549.8v-7c-8.6,1-11.5,3-11.5,6.3c0,3,2,4.2,4.4,4.2C72.9,553.2,75,552,77.6,549.8L77.6,549.8
			z M64.2,549.1c0-4.6,4.2-6.8,13.4-7.8c0-3.2-0.8-6.6-4.9-6.6c-2.8,0-5.2,1.4-6.6,2.4l-0.9-1.4c1.5-1,4.4-2.7,7.7-2.7
			c4.9,0,6.6,3.5,6.6,8v13.3h-1.6l-0.2-2.7h-0.1c-2.1,1.7-4.6,3.2-7.4,3.2C66.9,554.8,64.2,553,64.2,549.1L64.2,549.1z"/>
		<path style="fill:#001F49;" d="M97.5,549.7v-12.3c-2.2-1.9-4-2.7-6.1-2.7c-4.2,0-7.3,4-7.3,9.3c0,5.5,2.4,9.2,6.8,9.2
			C93.3,553.1,95.3,551.9,97.5,549.7L97.5,549.7z M82.1,544c0-6.7,4.3-10.9,9.2-10.9c2.5,0,4.2,1,6.3,2.6l-0.1-3.8v-8.6h1.9v31.1
			h-1.6l-0.2-2.7h-0.1c-1.7,1.7-4,3.2-6.7,3.2C85.5,554.8,82.1,551,82.1,544L82.1,544z"/>
		<path style="fill:#001F49;" d="M118.3,542.6c0-5.3-2.4-8-6.1-8c-3.5,0-6.7,3-7.1,8H118.3L118.3,542.6z M103.1,544
			c0-6.8,4.4-10.9,9-10.9c4.9,0,8,3.5,8,9.6c0,0.5,0,1-0.1,1.6h-15c0.1,5.2,3.2,9,7.8,9c2.2,0,4-0.7,5.6-1.9l0.8,1.5
			c-1.6,1-3.5,2-6.5,2C107.4,554.8,103.1,550.7,103.1,544L103.1,544z"/>
		<path style="fill:#001F49;" d="M124,533.5h1.6l0.2,3.2h0.1c1.9-2.1,4.2-3.7,6.5-3.7c3.3,0,5,1.7,5.8,4.2c2.4-2.6,4.7-4.2,7.1-4.2
			c4.2,0,6.2,2.6,6.2,8v13.3h-1.9v-13.1c0-4.4-1.5-6.5-4.6-6.5c-1.9,0-3.9,1.3-6.2,3.9v15.7h-1.9v-13.1c0-4.4-1.5-6.5-4.7-6.5
			c-1.9,0-3.9,1.3-6.2,3.9v15.7H124V533.5L124,533.5z"/>
		<path style="fill:#001F49;" d="M152.7,563.3l0.4-1.7c0.4,0.2,1.1,0.3,1.7,0.3c2.6,0,4.3-2.3,5.3-5.5l0.6-1.8l-8.5-21.1h2.1l5,13.1
			c0.6,1.7,1.5,4,2.2,5.8h0.2c0.6-1.8,1.3-4.1,1.9-5.8l4.5-13.1h1.9l-8.2,23.4c-1.2,3.5-3.2,6.9-7,6.9
			C154,563.8,153.2,563.6,152.7,563.3L152.7,563.3z"/>
		<path style="fill:#00AEEF;" d="M48,561.3h1.2l0.1,1.1h0.1c0.4-0.8,1.1-1.3,1.8-1.3c0.3,0,0.5,0,0.7,0.1l-0.3,1.3
			c-0.2-0.1-0.4-0.1-0.6-0.1c-0.5,0-1.1,0.3-1.5,1.3v3.8H48V561.3L48,561.3z"/>
		<path style="fill:#00AEEF;" d="M56.3,563.9c0-1-0.4-1.5-1.3-1.5c-0.7,0-1.4,0.5-1.5,1.5H56.3L56.3,563.9z M52.1,564.5
			c0-2,1.4-3.3,2.9-3.3c1.7,0,2.6,1.2,2.6,2.9c0,0.3,0,0.6-0.1,0.7h-3.9c0.1,1.1,0.8,1.7,1.8,1.7c0.5,0,1-0.2,1.4-0.5l0.5,0.9
			c-0.6,0.4-1.3,0.7-2.1,0.7C53.5,567.7,52.1,566.5,52.1,564.5L52.1,564.5z"/>
		<path style="fill:#00AEEF;" d="M62.1,565.9v-1.4c-1.7,0.2-2.2,0.7-2.2,1.3c0,0.6,0.4,0.8,0.9,0.8
			C61.2,566.6,61.6,566.3,62.1,565.9L62.1,565.9z M58.4,565.9c0-1.3,1.1-2,3.6-2.3c0-0.7-0.3-1.2-1.1-1.2c-0.6,0-1.2,0.3-1.7,0.6
			l-0.5-1c0.7-0.4,1.6-0.8,2.5-0.8c1.5,0,2.3,0.9,2.3,2.7v3.7h-1.2l-0.1-0.7h-0.1c-0.6,0.5-1.2,0.8-1.9,0.8
			C59.2,567.7,58.4,567,58.4,565.9L58.4,565.9z"/>
		<path style="fill:#00AEEF;" d="M65.1,566v-7.3h1.5v7.4c0,0.4,0.2,0.5,0.3,0.5c0.1,0,0.1,0,0.2,0l0.2,1.1c-0.2,0.1-0.4,0.1-0.8,0.1
			C65.5,567.7,65.1,567,65.1,566L65.1,566z"/>
		<path style="fill:#00AEEF;" d="M74.5,563.9c0-1-0.4-1.5-1.3-1.5c-0.7,0-1.4,0.5-1.5,1.5H74.5L74.5,563.9z M70.3,564.5
			c0-2,1.4-3.3,2.9-3.3c1.7,0,2.6,1.2,2.6,2.9c0,0.3,0,0.6-0.1,0.7h-3.9c0.1,1.1,0.8,1.7,1.8,1.7c0.5,0,1-0.2,1.4-0.5l0.5,0.9
			c-0.6,0.4-1.3,0.7-2.1,0.7C71.6,567.7,70.3,566.5,70.3,564.5L70.3,564.5z"/>
		<path style="fill:#00AEEF;" d="M76.3,566.8l0.7-0.9c0.6,0.4,1.1,0.7,1.7,0.7c0.7,0,1-0.3,1-0.7c0-0.5-0.7-0.7-1.3-1
			c-0.8-0.3-1.7-0.8-1.7-1.8c0-1.1,0.9-1.9,2.3-1.9c0.9,0,1.6,0.4,2.1,0.7l-0.7,0.9c-0.4-0.3-0.9-0.5-1.4-0.5
			c-0.6,0-0.9,0.3-0.9,0.7c0,0.5,0.6,0.7,1.3,0.9c0.8,0.3,1.8,0.7,1.8,1.9c0,1.1-0.8,1.9-2.4,1.9C77.8,567.7,76.9,567.3,76.3,566.8
			L76.3,566.8z"/>
		<path style="fill:#00AEEF;" d="M82.4,565.4v-3h-0.9v-1.1l1-0.1l0.2-1.7h1.2v1.7h1.6v1.1h-1.6v3c0,0.7,0.3,1.1,0.9,1.1
			c0.2,0,0.5-0.1,0.6-0.1l0.3,1.1c-0.3,0.1-0.8,0.2-1.3,0.2C83,567.7,82.4,566.8,82.4,565.4L82.4,565.4z"/>
		<path style="fill:#00AEEF;" d="M89.4,565.9v-1.4c-1.7,0.2-2.2,0.7-2.2,1.3c0,0.6,0.4,0.8,0.9,0.8C88.6,566.6,89,566.3,89.4,565.9
			L89.4,565.9z M85.8,565.9c0-1.3,1.1-2,3.6-2.3c0-0.7-0.3-1.2-1.1-1.2c-0.6,0-1.2,0.3-1.7,0.6l-0.5-1c0.7-0.4,1.6-0.8,2.5-0.8
			c1.5,0,2.3,0.9,2.3,2.7v3.7h-1.2l-0.1-0.7h-0.1c-0.6,0.5-1.2,0.8-1.9,0.8C86.5,567.7,85.8,567,85.8,565.9L85.8,565.9z"/>
		<path style="fill:#00AEEF;" d="M92.5,565.4v-3h-0.9v-1.1l1-0.1l0.2-1.7H94v1.7h1.6v1.1H94v3c0,0.7,0.3,1.1,0.9,1.1
			c0.2,0,0.5-0.1,0.6-0.1l0.3,1.1c-0.3,0.1-0.8,0.2-1.3,0.2C93,567.7,92.5,566.8,92.5,565.4L92.5,565.4z"/>
		<path style="fill:#00AEEF;" d="M100.3,563.9c0-1-0.4-1.5-1.3-1.5c-0.7,0-1.4,0.5-1.5,1.5H100.3L100.3,563.9z M96.1,564.5
			c0-2,1.4-3.3,2.9-3.3c1.7,0,2.6,1.2,2.6,2.9c0,0.3,0,0.6-0.1,0.7h-3.9c0.1,1.1,0.8,1.7,1.8,1.7c0.5,0,1-0.2,1.4-0.5l0.5,0.9
			c-0.6,0.4-1.3,0.7-2.1,0.7C97.5,567.7,96.1,566.5,96.1,564.5L96.1,564.5z"/>
		<path style="fill:#00AEEF;" d="M105.4,565.4v-3h-0.9v-1.1l1-0.1l0.2-1.7h1.2v1.7h1.6v1.1h-1.6v3c0,0.7,0.3,1.1,0.9,1.1
			c0.2,0,0.5-0.1,0.6-0.1l0.3,1.1c-0.3,0.1-0.8,0.2-1.3,0.2C105.9,567.7,105.4,566.8,105.4,565.4L105.4,565.4z"/>
		<path style="fill:#00AEEF;" d="M109.6,561.3h1.2l0.1,1.1h0.1c0.4-0.8,1.1-1.3,1.8-1.3c0.3,0,0.5,0,0.7,0.1l-0.3,1.3
			c-0.2-0.1-0.4-0.1-0.6-0.1c-0.5,0-1.1,0.3-1.5,1.3v3.8h-1.5V561.3L109.6,561.3z"/>
		<path style="fill:#00AEEF;" d="M117.2,565.9v-1.4c-1.7,0.2-2.2,0.7-2.2,1.3c0,0.6,0.4,0.8,0.9,0.8
			C116.3,566.6,116.7,566.3,117.2,565.9L117.2,565.9z M113.5,565.9c0-1.3,1.1-2,3.6-2.3c0-0.7-0.3-1.2-1.1-1.2
			c-0.6,0-1.2,0.3-1.7,0.6l-0.5-1c0.7-0.4,1.6-0.8,2.5-0.8c1.5,0,2.3,0.9,2.3,2.7v3.7h-1.2l-0.1-0.7h-0.1c-0.6,0.5-1.2,0.8-1.9,0.8
			C114.3,567.7,113.5,567,113.5,565.9L113.5,565.9z"/>
		<path style="fill:#00AEEF;" d="M120.2,561.3h1.5v6.2h-1.5V561.3L120.2,561.3z M120.1,559.4c0-0.5,0.4-0.8,0.9-0.8
			c0.5,0,0.9,0.3,0.9,0.8c0,0.5-0.4,0.8-0.9,0.8C120.5,560.3,120.1,559.9,120.1,559.4L120.1,559.4z"/>
		<path style="fill:#00AEEF;" d="M123.4,561.3h1.2l0.1,0.8h0.1c0.6-0.5,1.2-1,2-1c1.3,0,1.9,0.9,1.9,2.5v3.9h-1.5v-3.7
			c0-1-0.3-1.4-1-1.4c-0.5,0-0.9,0.3-1.4,0.8v4.3h-1.5V561.3L123.4,561.3z"/>
		<path style="fill:#00AEEF;" d="M130.4,561.3h1.5v6.2h-1.5V561.3L130.4,561.3z M130.2,559.4c0-0.5,0.4-0.8,0.9-0.8
			c0.5,0,0.9,0.3,0.9,0.8c0,0.5-0.4,0.8-0.9,0.8C130.6,560.3,130.2,559.9,130.2,559.4L130.2,559.4z"/>
		<path style="fill:#00AEEF;" d="M133.5,561.3h1.2l0.1,0.8h0.1c0.6-0.5,1.2-1,2-1c1.3,0,1.9,0.9,1.9,2.5v3.9h-1.5v-3.7
			c0-1-0.3-1.4-1-1.4c-0.5,0-0.9,0.3-1.4,0.8v4.3h-1.5V561.3L133.5,561.3z"/>
		<path style="fill:#00AEEF;" d="M143.8,563.4c0-0.8-0.5-1.2-1.1-1.2c-0.6,0-1.1,0.4-1.1,1.2c0,0.8,0.5,1.2,1.1,1.2
			C143.3,564.7,143.8,564.2,143.8,563.4L143.8,563.4z M144.5,568.3c0-0.5-0.4-0.6-1.1-0.6h-0.8c-0.3,0-0.6,0-0.8-0.1
			c-0.3,0.3-0.5,0.5-0.5,0.8c0,0.6,0.6,0.9,1.6,0.9C143.9,569.3,144.5,568.9,144.5,568.3L144.5,568.3z M140.1,568.7
			c0-0.5,0.3-1,0.9-1.3v0c-0.3-0.2-0.6-0.5-0.6-1c0-0.5,0.3-0.9,0.7-1.1v-0.1c-0.4-0.3-0.8-0.9-0.8-1.6c0-1.4,1.1-2.2,2.4-2.2
			c0.3,0,0.7,0.1,0.9,0.2h2.2v1.1h-1.1c0.2,0.2,0.4,0.6,0.4,1c0,1.4-1,2.1-2.3,2.1c-0.3,0-0.6-0.1-0.8-0.2c-0.2,0.2-0.3,0.3-0.3,0.6
			c0,0.4,0.3,0.6,1,0.6h1.1c1.5,0,2.3,0.5,2.3,1.5c0,1.2-1.3,2.2-3.3,2.2C141.2,570.3,140.1,569.8,140.1,568.7L140.1,568.7z"/>
	</g>
	<rect x="593.4" y="558.9" style="fill:none;" width="73" height="14.6"/>
	<text transform="matrix(1 0 0 1 593.4449 567.5021)" style="font-family:'Helvetica'; font-size:12px;">certificate id:</text>
	<rect x="311.3" y="558.9" style="fill:none;" width="219.4" height="14.6"/>
	<text transform="matrix(1 0 0 1 318.1364 567.5021)" style="font-family:'Helvetica'; font-size:12px;">© 2015 Harcourts International Limited</text>
</g>
</svg>
