<?xml version="1.0" encoding="utf-8"?>
<!-- Generator: Adobe Illustrator 19.2.0, SVG Export Plug-In . SVG Version: 6.00 Build 0)  -->
<svg version="1.1" id="Layer_1" xmlns="http://www.w3.org/2000/svg" xmlns:xlink="http://www.w3.org/1999/xlink" x="0px" y="0px"
	 viewBox="0 0 841.9 595.3" style="enable-background:new 0 0 841.9 595.3;" xml:space="preserve">
<linearGradient id="SVGID_1_" gradientUnits="userSpaceOnUse" x1="420.95" y1="552.1378" x2="420.95" y2="-34.9848" gradientTransform="matrix(1 0 0 1 0 36)">
	<stop  offset="0" style="stop-color:#D9D9D9"/>
	<stop  offset="0.3586" style="stop-color:#E3E3E3"/>
	<stop  offset="0.965" style="stop-color:#FDFDFD"/>
	<stop  offset="1" style="stop-color:#FFFFFF"/>
</linearGradient>
<rect style="fill:url(#SVGID_1_);" width="841.9" height="595.2"/>
<rect x="14.3" y="15.1" style="fill:none;stroke:#002B49;stroke-miterlimit:10;" width="813.3" height="565"/>
<g>
	<path style="fill:#001F49;" d="M671.9,73v-7c-8.6,1-11.5,3-11.5,6.3c0,3,2,4.2,4.4,4.2C667.2,76.5,669.3,75.2,671.9,73L671.9,73z
		 M658.5,72.3c0-4.6,4.2-6.8,13.4-7.8c0-3.2-0.8-6.6-4.9-6.6c-2.8,0-5.2,1.4-6.6,2.4l-0.9-1.4c1.5-1,4.4-2.7,7.7-2.7
		c4.9,0,6.6,3.5,6.6,8v13.3h-1.6l-0.2-2.7h-0.1c-2.1,1.7-4.6,3.2-7.4,3.2C661.2,78,658.5,76.2,658.5,72.3L658.5,72.3z"/>
	<path style="fill:#001F49;" d="M677.7,67.2c0-7,4.4-10.9,9.5-10.9c2.9,0,4.7,1.3,6.1,2.6l-1.1,1.3c-1.3-1.3-2.9-2.2-4.9-2.2
		c-4.2,0-7.5,3.8-7.5,9.3c0,5.4,3,9.2,7.5,9.2c2.2,0,4.1-1.1,5.5-2.4l1,1.3c-1.8,1.6-4,2.7-6.6,2.7C681.8,78,677.7,74,677.7,67.2
		L677.7,67.2z"/>
	<path style="fill:#001F49;" d="M709.1,73v-7c-8.6,1-11.5,3-11.5,6.3c0,3,2,4.2,4.4,4.2C704.4,76.4,706.5,75.2,709.1,73L709.1,73z
		 M695.7,72.3c0-4.6,4.2-6.8,13.4-7.8c0-3.2-0.8-6.6-4.9-6.6c-2.8,0-5.2,1.4-6.6,2.4l-0.9-1.4c1.5-1,4.4-2.7,7.7-2.7
		c4.9,0,6.6,3.5,6.6,8v13.3h-1.6l-0.2-2.7h-0.1c-2.1,1.7-4.6,3.2-7.4,3.2C698.4,78,695.7,76.2,695.7,72.3L695.7,72.3z"/>
	<path style="fill:#001F49;" d="M729,72.9V60.6c-2.2-1.9-4-2.7-6.1-2.7c-4.2,0-7.3,4-7.3,9.3c0,5.5,2.4,9.2,6.8,9.2
		C724.8,76.3,726.8,75.1,729,72.9L729,72.9z M713.6,67.2c0-6.7,4.3-10.9,9.2-10.9c2.5,0,4.2,1,6.3,2.6l-0.1-3.8v-8.6h1.9v31.1h-1.6
		l-0.2-2.7H729c-1.7,1.7-4,3.2-6.7,3.2C717,78,713.6,74.2,713.6,67.2L713.6,67.2z"/>
	<path style="fill:#001F49;" d="M749.8,65.8c0-5.3-2.4-8-6.1-8c-3.5,0-6.7,3-7.1,8H749.8L749.8,65.8z M734.6,67.2
		c0-6.8,4.4-10.9,9-10.9c4.9,0,8,3.5,8,9.6c0,0.5,0,1-0.1,1.6h-15c0.1,5.2,3.2,9,7.8,9c2.2,0,4-0.7,5.6-1.9l0.8,1.5
		c-1.6,1-3.5,2-6.5,2C738.9,78,734.6,73.9,734.6,67.2L734.6,67.2z"/>
	<path style="fill:#001F49;" d="M755.5,56.7h1.6l0.2,3.2h0.1c1.9-2.1,4.2-3.7,6.5-3.7c3.3,0,5,1.7,5.8,4.2c2.4-2.6,4.7-4.2,7.1-4.2
		c4.2,0,6.2,2.6,6.2,8v13.3h-1.9V64.4c0-4.4-1.5-6.5-4.6-6.5c-1.9,0-3.9,1.3-6.2,3.9v15.7h-1.9V64.4c0-4.4-1.5-6.5-4.7-6.5
		c-1.9,0-3.9,1.3-6.2,3.9v15.7h-2L755.5,56.7L755.5,56.7z"/>
	<path style="fill:#001F49;" d="M784.2,86.5l0.4-1.7c0.4,0.2,1.1,0.3,1.7,0.3c2.6,0,4.3-2.3,5.3-5.5l0.6-1.8l-8.5-21.1h2.1l5,13.1
		c0.6,1.7,1.5,4,2.2,5.8h0.2c0.6-1.8,1.3-4.1,1.9-5.8l4.5-13.1h1.9l-8.2,23.4c-1.2,3.5-3.2,6.9-7,6.9
		C785.5,87,784.7,86.8,784.2,86.5L784.2,86.5z"/>
	<path style="fill:#00AEEF;" d="M679.5,84.5h1.2l0.1,1.1h0.1c0.4-0.8,1.1-1.3,1.8-1.3c0.3,0,0.5,0,0.7,0.1l-0.3,1.3
		c-0.2-0.1-0.4-0.1-0.6-0.1c-0.5,0-1.1,0.3-1.5,1.3v3.8h-1.5V84.5L679.5,84.5z"/>
	<path style="fill:#00AEEF;" d="M687.8,87.1c0-1-0.4-1.5-1.3-1.5c-0.7,0-1.4,0.5-1.5,1.5H687.8L687.8,87.1z M683.6,87.7
		c0-2,1.4-3.3,2.9-3.3c1.7,0,2.6,1.2,2.6,2.9c0,0.3,0,0.6-0.1,0.7h-3.9c0.1,1.1,0.8,1.7,1.8,1.7c0.5,0,1-0.2,1.4-0.5l0.5,0.9
		c-0.6,0.4-1.3,0.7-2.1,0.7C685,90.9,683.6,89.7,683.6,87.7L683.6,87.7z"/>
	<path style="fill:#00AEEF;" d="M693.6,89.1v-1.4c-1.7,0.2-2.2,0.7-2.2,1.3s0.4,0.8,0.9,0.8C692.7,89.8,693.1,89.5,693.6,89.1
		L693.6,89.1z M689.9,89.1c0-1.3,1.1-2,3.6-2.3c0-0.7-0.3-1.2-1.1-1.2c-0.6,0-1.2,0.3-1.7,0.6l-0.5-1c0.7-0.4,1.6-0.8,2.5-0.8
		c1.5,0,2.3,0.9,2.3,2.7v3.7h-1.2l-0.1-0.7h-0.1c-0.6,0.5-1.2,0.8-1.9,0.8C690.7,90.9,689.9,90.2,689.9,89.1L689.9,89.1z"/>
	<path style="fill:#00AEEF;" d="M696.6,89.2v-7.3h1.5v7.4c0,0.4,0.2,0.5,0.3,0.5s0.1,0,0.2,0l0.2,1.1c-0.2,0.1-0.4,0.1-0.8,0.1
		C697,90.9,696.6,90.2,696.6,89.2L696.6,89.2z"/>
	<path style="fill:#00AEEF;" d="M706,87.1c0-1-0.4-1.5-1.3-1.5c-0.7,0-1.4,0.5-1.5,1.5H706L706,87.1z M701.8,87.7
		c0-2,1.4-3.3,2.9-3.3c1.7,0,2.6,1.2,2.6,2.9c0,0.3,0,0.6-0.1,0.7h-3.9c0.1,1.1,0.8,1.7,1.8,1.7c0.5,0,1-0.2,1.4-0.5l0.5,0.9
		c-0.6,0.4-1.3,0.7-2.1,0.7C703.1,90.9,701.8,89.7,701.8,87.7L701.8,87.7z"/>
	<path style="fill:#00AEEF;" d="M707.8,90l0.7-0.9c0.6,0.4,1.1,0.7,1.7,0.7c0.7,0,1-0.3,1-0.7c0-0.5-0.7-0.7-1.3-1
		c-0.8-0.3-1.7-0.8-1.7-1.8c0-1.1,0.9-1.9,2.3-1.9c0.9,0,1.6,0.4,2.1,0.7l-0.7,0.9c-0.4-0.3-0.9-0.5-1.4-0.5c-0.6,0-0.9,0.3-0.9,0.7
		c0,0.5,0.6,0.7,1.3,0.9c0.8,0.3,1.8,0.7,1.8,1.9c0,1.1-0.8,1.9-2.4,1.9C709.3,90.9,708.4,90.5,707.8,90L707.8,90z"/>
	<path style="fill:#00AEEF;" d="M713.9,88.6v-3H713v-1.1l1-0.1l0.2-1.7h1.2v1.7h1.6v1.1h-1.6v3c0,0.7,0.3,1.1,0.9,1.1
		c0.2,0,0.5-0.1,0.6-0.1l0.3,1.1c-0.3,0.1-0.8,0.2-1.3,0.2C714.5,90.9,713.9,90,713.9,88.6L713.9,88.6z"/>
	<path style="fill:#00AEEF;" d="M720.9,89.1v-1.4c-1.7,0.2-2.2,0.7-2.2,1.3s0.4,0.8,0.9,0.8S720.5,89.5,720.9,89.1L720.9,89.1z
		 M717.3,89.1c0-1.3,1.1-2,3.6-2.3c0-0.7-0.3-1.2-1.1-1.2c-0.6,0-1.2,0.3-1.7,0.6l-0.5-1c0.7-0.4,1.6-0.8,2.5-0.8
		c1.5,0,2.3,0.9,2.3,2.7v3.7h-1.2l-0.1-0.7H721c-0.6,0.5-1.2,0.8-1.9,0.8C718,90.9,717.3,90.2,717.3,89.1L717.3,89.1z"/>
	<path style="fill:#00AEEF;" d="M724,88.6v-3h-0.9v-1.1l1-0.1l0.2-1.7h1.2v1.7h1.6v1.1h-1.6v3c0,0.7,0.3,1.1,0.9,1.1
		c0.2,0,0.5-0.1,0.6-0.1l0.3,1.1c-0.3,0.1-0.8,0.2-1.3,0.2C724.5,90.9,724,90,724,88.6L724,88.6z"/>
	<path style="fill:#00AEEF;" d="M731.8,87.1c0-1-0.4-1.5-1.3-1.5c-0.7,0-1.4,0.5-1.5,1.5H731.8L731.8,87.1z M727.6,87.7
		c0-2,1.4-3.3,2.9-3.3c1.7,0,2.6,1.2,2.6,2.9c0,0.3,0,0.6-0.1,0.7h-3.9c0.1,1.1,0.8,1.7,1.8,1.7c0.5,0,1-0.2,1.4-0.5l0.5,0.9
		c-0.6,0.4-1.3,0.7-2.1,0.7C729,90.9,727.6,89.7,727.6,87.7L727.6,87.7z"/>
	<path style="fill:#00AEEF;" d="M736.9,88.6v-3H736v-1.1l1-0.1l0.2-1.7h1.2v1.7h1.6v1.1h-1.6v3c0,0.7,0.3,1.1,0.9,1.1
		c0.2,0,0.5-0.1,0.6-0.1l0.3,1.1c-0.3,0.1-0.8,0.2-1.3,0.2C737.4,90.9,736.9,90,736.9,88.6L736.9,88.6z"/>
	<path style="fill:#00AEEF;" d="M741.1,84.5h1.2l0.1,1.1h0.1c0.4-0.8,1.1-1.3,1.8-1.3c0.3,0,0.5,0,0.7,0.1l-0.3,1.3
		c-0.2-0.1-0.4-0.1-0.6-0.1c-0.5,0-1.1,0.3-1.5,1.3v3.8h-1.5V84.5L741.1,84.5z"/>
	<path style="fill:#00AEEF;" d="M748.7,89.1v-1.4c-1.7,0.2-2.2,0.7-2.2,1.3s0.4,0.8,0.9,0.8C747.8,89.8,748.2,89.5,748.7,89.1
		L748.7,89.1z M745,89.1c0-1.3,1.1-2,3.6-2.3c0-0.7-0.3-1.2-1.1-1.2c-0.6,0-1.2,0.3-1.7,0.6l-0.5-1c0.7-0.4,1.6-0.8,2.5-0.8
		c1.5,0,2.3,0.9,2.3,2.7v3.7h-1.2l-0.1-0.7h-0.1c-0.6,0.5-1.2,0.8-1.9,0.8C745.8,90.9,745,90.2,745,89.1L745,89.1z"/>
	<path style="fill:#00AEEF;" d="M751.7,84.5h1.5v6.2h-1.5V84.5L751.7,84.5z M751.6,82.6c0-0.5,0.4-0.8,0.9-0.8s0.9,0.3,0.9,0.8
		s-0.4,0.8-0.9,0.8C752,83.5,751.6,83.1,751.6,82.6L751.6,82.6z"/>
	<path style="fill:#00AEEF;" d="M754.9,84.5h1.2l0.1,0.8h0.1c0.6-0.5,1.2-1,2-1c1.3,0,1.9,0.9,1.9,2.5v3.9h-1.5V87
		c0-1-0.3-1.4-1-1.4c-0.5,0-0.9,0.3-1.4,0.8v4.3h-1.5L754.9,84.5L754.9,84.5z"/>
	<path style="fill:#00AEEF;" d="M761.9,84.5h1.5v6.2h-1.5V84.5L761.9,84.5z M761.7,82.6c0-0.5,0.4-0.8,0.9-0.8s0.9,0.3,0.9,0.8
		s-0.4,0.8-0.9,0.8C762.1,83.5,761.7,83.1,761.7,82.6L761.7,82.6z"/>
	<path style="fill:#00AEEF;" d="M765,84.5h1.2l0.1,0.8h0.1c0.6-0.5,1.2-1,2-1c1.3,0,1.9,0.9,1.9,2.5v3.9h-1.5V87c0-1-0.3-1.4-1-1.4
		c-0.5,0-0.9,0.3-1.4,0.8v4.3h-1.5L765,84.5L765,84.5z"/>
	<path style="fill:#00AEEF;" d="M775.3,86.6c0-0.8-0.5-1.2-1.1-1.2s-1.1,0.4-1.1,1.2s0.5,1.2,1.1,1.2
		C774.8,87.9,775.3,87.4,775.3,86.6L775.3,86.6z M776,91.5c0-0.5-0.4-0.6-1.1-0.6h-0.8c-0.3,0-0.6,0-0.8-0.1
		c-0.3,0.3-0.5,0.5-0.5,0.8c0,0.6,0.6,0.9,1.6,0.9C775.4,92.5,776,92.1,776,91.5L776,91.5z M771.6,91.9c0-0.5,0.3-1,0.9-1.3l0,0
		c-0.3-0.2-0.6-0.5-0.6-1s0.3-0.9,0.7-1.1v-0.1c-0.4-0.3-0.8-0.9-0.8-1.6c0-1.4,1.1-2.2,2.4-2.2c0.3,0,0.7,0.1,0.9,0.2h2.2v1.1h-1.1
		c0.2,0.2,0.4,0.6,0.4,1c0,1.4-1,2.1-2.3,2.1c-0.3,0-0.6-0.1-0.8-0.2c-0.2,0.2-0.3,0.3-0.3,0.6c0,0.4,0.3,0.6,1,0.6h1.1
		c1.5,0,2.3,0.5,2.3,1.5c0,1.2-1.3,2.2-3.3,2.2C772.7,93.5,771.6,93,771.6,91.9L771.6,91.9z"/>
</g>
<text transform="matrix(1 0 0 1 40.369 91.7003)" style="fill:#00ADEF; font-family:'SourceSansPro-Semibold'; font-size:72px;">Certificate</text>
</svg>
